<?xml version="1.0"?>
<svg width="499.805" height="499.805" xmlns="http://www.w3.org/2000/svg" xmlns:svg="http://www.w3.org/2000/svg">
 <g>
  <title>Layer 1</title>
  <path fill="black" id="svg_3" d="m4.799871,379.364832c-5.264921,-13.900788 1.610477,-29.131593 15.583807,-34.338172c2.202185,-0.793165 4.440388,-1.317266 6.704317,-1.585054l95.980299,-13.157355l118.686478,-182.934162l-37.122004,5.024227l-53.936822,82.772234c-3.174646,5.18235 -8.524464,8.900789 -15.007534,9.816371c-11.525457,1.609283 -22.20194,-6.35297 -23.82528,-17.742919c-0.88499,-6.206324 1.083084,-12.08365 4.858443,-16.485587l58.168826,-88.979833c3.186223,-5.132618 8.548905,-8.889312 15.019111,-9.803619l100.569901,-14.060186c7.36806,-1.011221 14.451842,0.96404 19.975314,4.987247l73.175073,54.580453l45.646469,-60.030592c3.296847,-3.669981 7.872299,-6.243304 13.11278,-6.962508c11.906208,-1.670492 22.902986,6.585053 24.58807,18.363934c0.725486,5.146645 -0.430918,10.08416 -2.939249,14.206832l-54.983889,72.920158c-16.715771,22.009687 -34.661268,7.865339 -34.661268,7.865339l-44.873388,-33.691653l-51.452932,79.041044l64.245417,47.93419c0,0 13.371331,9.242538 9.779916,31.935724l-11.760854,143.876532c-0.785944,12.425399 -10.282868,23.059164 -23.234858,24.850798c-14.772137,2.07345 -28.462476,-8.133128 -30.554037,-22.777348c-0.319008,-2.305534 -0.344735,-4.609792 -0.110624,-6.84009l9.668006,-117.940551l-72.744155,-52.750563l-46.335938,68.516945c0,0 -7.330756,12.144858 -31.095579,14.608515l-111.540952,15.791886c-12.449037,1.949757 -24.970108,-4.90436 -29.582863,-17.012238z"/>
  <circle fill="black" id="svg_4" r="47.502991" cy="48.190996" cx="324.413999"/>
  <g id="svg_7"/>
  <g id="svg_8"/>
  <g id="svg_9"/>
  <g id="svg_10"/>
  <g id="svg_11"/>
  <g id="svg_12"/>
  <g id="svg_13"/>
  <g id="svg_14"/>
  <g id="svg_15"/>
  <g id="svg_16"/>
  <g id="svg_17"/>
  <g id="svg_18"/>
  <g id="svg_19"/>
  <g id="svg_20"/>
  <g id="svg_21"/>
 </g>
</svg>