<?xml version="1.0"?>
<svg width="600" height="600" xmlns="http://www.w3.org/2000/svg" xmlns:svg="http://www.w3.org/2000/svg">
 <!-- Created with SVG-edit - http://svg-edit.googlecode.com/ -->
 <g>
  <title>Layer 1</title>
  <path stroke="#000000" id="svg_1" d="m5.434988,595.280052l110.625011,-403.000046l368.750056,0l110.624971,403.000046l-590.000037,0z" stroke-linecap="null" stroke-linejoin="null" stroke-dasharray="null" stroke-width="5" fill="#000000"/>
  <path stroke="#000000" id="svg_3" d="m193,112.000006l0,0c0,-59.094466 47.90554,-107.000006 107.000006,-107.000006l0,0c28.378154,0 55.594036,11.273176 75.660415,31.339569c20.0664,20.0664 31.339591,47.282261 31.339591,75.660436l0,0c0,59.094459 -47.90554,107.000006 -107.000006,107.000006l0,0c-59.094459,0 -107.000006,-47.905547 -107.000006,-107.000006zm53.500003,0l0,0c0,29.547226 23.952784,53.500003 53.500003,53.500003c29.54724,0 53.500003,-23.952777 53.500003,-53.500003c0,-29.547226 -23.952777,-53.500003 -53.500003,-53.500003l0,0c-29.547219,0 -53.500003,23.952784 -53.500003,53.500003z" stroke-linecap="null" stroke-linejoin="null" stroke-dasharray="null" stroke-width="5" fill="#000000"/>
 </g>
</svg>