<?xml version="1.0"?>
<svg width="50" height="50" xmlns="http://www.w3.org/2000/svg" xmlns:svg="http://www.w3.org/2000/svg">
 <g>
  <title>Layer 1</title>
  <circle stroke="#000000" fill-opacity="0" id="svg_19" r="23.349752" cy="25.017943" cx="25.066743" stroke-width="3" fill="#000000"/>
  <g stroke="null" id="svg_1">
   <path stroke="null" id="svg_2" fill="#010002" d="m7.703793,33.677947l8.794085,8.794085l20.004091,-20.007361l-8.79572,-8.79245l-20.002457,20.005726zm9.0736,6.745946l-7.023826,-7.02873l17.820281,-17.815378l7.020557,7.027095l-17.817012,17.817012zm11.386542,-32.006873l13.593236,13.607947l-1.608435,1.6068l-13.594871,-13.607947l1.610069,-1.6068zm21.748197,3.841282l-1.325651,1.325651l-2.386499,-2.388133l-6.644601,6.644601l-7.215073,-7.221611l6.641332,-6.639698l-2.386499,-2.384864l1.325651,-1.327286l11.99134,11.99134zm-40.444618,25.522461l2.929182,2.927548l-10.822609,9.07033l-1.173634,-1.176904l9.067061,-10.820974zm4.620981,-8.681298l4.398677,4.397042l-1.644396,1.64603l-4.398677,-4.395408l1.644396,-1.647665zm4.057048,-4.055414l4.400312,4.397042l-1.64603,1.647665l-4.400312,-4.397042l1.64603,-1.647665zm3.926281,-3.924646l4.398677,4.393773l-1.647665,1.6493l-4.398677,-4.392139l1.647665,-1.650934zm3.476769,-3.476769l4.395408,4.397042l-1.644396,1.64603l-4.397042,-4.397042l1.64603,-1.64603z"/>
  </g>
  <g id="svg_3"/>
  <g id="svg_4"/>
  <g id="svg_5"/>
  <g id="svg_6"/>
  <g id="svg_7"/>
  <g id="svg_8"/>
  <g id="svg_9"/>
  <g id="svg_10"/>
  <g id="svg_11"/>
  <g id="svg_12"/>
  <g id="svg_13"/>
  <g id="svg_14"/>
  <g id="svg_15"/>
  <g id="svg_16"/>
  <g id="svg_17"/>
  <line stroke="#000000" id="svg_21" y2="40.502073" x2="42.953579" y1="9.934262" x1="6.91293" fill-opacity="0" stroke-linecap="null" stroke-linejoin="null" stroke-dasharray="null" stroke-width="3" fill="none"/>
 </g>
</svg>