<?xml version="1.0"?>
<svg width="441.331" height="441.332" xmlns="http://www.w3.org/2000/svg" xmlns:svg="http://www.w3.org/2000/svg" stroke="null" style="vector-effect: non-scaling-stroke;">
 <g stroke="null">
  <title stroke="null">Layer 1</title>
  <g stroke="null" id="svg_1">
   <path stroke="null" id="svg_2" d="m11.870792,391.956531c6.704247,-6.719287 15.987354,-9.261988 24.650267,-7.647969c6.957873,-12.479101 18.560271,-27.507856 33.237885,-42.2148c12.707059,-12.739331 25.645948,-23.163413 36.972924,-30.267084c-13.239079,-15.153904 -22.725286,-29.768476 -26.722867,-40.693153c-5.528254,2.00337 -10.950501,1.516682 -14.29024,-1.83154c-5.398469,-5.418139 -3.338748,-16.266335 4.597962,-24.233135c7.952562,-7.973752 18.77724,-10.038704 24.1767,-4.620565c3.352619,3.36014 3.81826,8.783245 1.821946,14.332492c10.106402,3.705788 23.378175,12.169209 37.310762,23.954034l254.768306,-269.010841l52.605599,-8.677961l-9.637788,51.751917l-266.70557,257.185294c11.373541,13.647154 19.549016,26.614931 23.171113,36.539412c5.529245,-2.005357 10.950501,-1.526614 14.29024,1.820614c5.410358,5.418139 3.344693,16.273288 -4.607869,24.235121c-7.942655,7.972759 -18.767333,10.037711 -24.169765,4.619572c-3.349646,-3.353187 -3.817269,-8.789204 -1.82789,-14.333485c-10.894029,-3.998795 -25.478515,-13.516046 -40.587095,-26.783782c-7.09063,11.359717 -17.482361,24.333452 -30.193383,37.066824c-14.673651,14.707938 -29.657399,26.338809 -42.104888,33.327265c1.609931,8.685907 -0.926329,17.984645 -7.627604,24.703932c-10.805855,10.830318 -28.327844,10.830318 -39.13568,0c-10.804864,-10.825352 -10.804864,-28.384889 0.006935,-39.22216zm409.279047,-336.763897l5.722437,-28.601416l-14.694456,19.601644l-245.406931,246.041111l254.37895,-237.041339z"/>
  </g>
  <g stroke="null" id="svg_3"/>
  <g stroke="null" id="svg_4"/>
  <g stroke="null" id="svg_5"/>
  <g stroke="null" id="svg_6"/>
  <g stroke="null" id="svg_7"/>
  <g stroke="null" id="svg_8"/>
  <g stroke="null" id="svg_9"/>
  <g stroke="null" id="svg_10"/>
  <g stroke="null" id="svg_11"/>
  <g stroke="null" id="svg_12"/>
  <g stroke="null" id="svg_13"/>
  <g stroke="null" id="svg_14"/>
  <g stroke="null" id="svg_15"/>
  <g stroke="null" id="svg_16"/>
  <g stroke="null" id="svg_17"/>
 </g>
</svg>