<?xml version="1.0"?>
<svg width="282" height="300" xmlns="http://www.w3.org/2000/svg" xmlns:svg="http://www.w3.org/2000/svg" stroke="null" style="vector-effect: non-scaling-stroke;" preserveAspectRatio="xMidYMid meet">
 <g stroke="null">
  <title stroke="null">Layer 1</title>
  <g id="svg_1" fill="#050505" transform="translate(0,300) scale(0.10000000149011612,-0.10000000149011612) ">
   <path stroke="null" d="m1276.877303,2931.093154c-45.299013,-11.920793 -126.360405,-69.140599 -183.580211,-126.360405c-243.184176,-243.184176 -178.811894,-627.033709 128.744564,-782.004017c202.65348,-104.902978 371.92874,-83.445551 548.356475,66.75644c257.489128,216.958432 207.421797,653.259453 -95.366344,808.229762c-92.982185,50.06733 -293.251506,66.75644 -398.154484,33.37822z" id="node1" class="node"/>
   <path stroke="null" d="m759.51489,1789.08119c-52.451489,-9.536634 -126.360405,-30.994062 -162.122784,-45.299013c-102.518819,-40.530696 -288.483189,-245.568335 -321.861409,-352.855471c-40.530696,-138.281198 -40.530696,-1888.253602 2.384159,-1945.473408c66.75644,-92.982185 278.946555,-85.829709 340.934678,11.920793c11.920793,16.68911 26.225744,374.312898 33.37822,793.92481l11.920793,762.930748l59.603965,0l59.603965,0l11.920793,-2057.528862l11.920793,-2059.913021l78.677233,-69.140599c61.988123,-57.219806 97.750502,-69.140599 195.501004,-69.140599c97.750502,0 133.512881,11.920793 195.501004,69.140599l78.677233,69.140599l11.920793,1225.457515l11.920793,1223.073356l59.603965,0l59.603965,0l11.920793,-1204.000087c11.920793,-1299.366431 11.920793,-1277.909004 143.049515,-1347.049603c116.823771,-61.988123 247.952493,-45.299013 345.702995,38.146537l83.445551,73.908916l0,2045.608069c0,2024.150642 0,2047.992228 47.683172,2062.297179c26.225744,7.152476 57.219806,7.152476 71.524758,0c14.304952,-9.536634 23.841586,-269.409921 23.841586,-710.479259c0,-720.015894 14.304952,-855.912933 95.366344,-898.827788c71.524758,-38.146537 205.037639,-28.609903 264.641603,21.457427l57.219806,45.299013l0,939.358484c0,917.901057 0,939.358484 -52.451489,1034.724827c-28.609903,52.451489 -95.366344,135.89704 -150.201991,185.96437c-181.196053,164.506943 -200.269321,166.891101 -929.82185,171.659418c-360.007947,4.768317 -698.558466,-2.384159 -751.009955,-14.304952z" id="node2" class="node"/>
  </g>
  <g id="svg_2" fill="#9F9F9F" transform="translate(0,300) scale(0.10000000149011612,-0.10000000149011612) "/>
  <path stroke="null" id="svg_3" d="m144.422491,171.715981c19.777333,-56.738251 97.265573,0 0,72.94918c-97.265573,-72.94918 -19.777333,-129.68743 0,-72.94918z" stroke-width="5" fill="#FF0000"/>
 </g>
</svg>