<?xml version="1.0"?>
<svg width="750" height="750" xmlns="http://www.w3.org/2000/svg" xmlns:svg="http://www.w3.org/2000/svg">
 <g>
  <title>Layer 1</title>
  <path fill="#7f7f7f" stroke-width="11" stroke-dasharray="null" stroke-linejoin="null" stroke-linecap="null" d="m600.669865,7.505017c-68.070354,51.435302 -162.156305,51.934573 -230.743683,1.53349c-65.966194,48.492192 -155.5564,49.880318 -222.874781,4.16258l-121.047506,121.525986c74.461178,76.107741 74.028397,198.387509 -1.272422,273.97345c-9.993794,25.806522 -15.231606,24.562086 -16.32187,50.550313c-2.564048,62.568819 12.451207,120.937536 59.483777,164.897779c42.013927,39.268798 99.028595,55.923499 153.795667,49.981118c91.454281,4.743643 135.298143,44.50728 153.695197,68.290224c24.841774,-25.411867 63.473007,-66.264332 180.884852,-71.357057c70.089929,-10.156223 95.418907,-26.563578 128.313638,-56.897863c44.275405,-41.382514 59.756923,-93.785089 58.452099,-152.009402c-0.541839,-24.171887 -3.488169,-32.575613 -18.036029,-63.438912c-75.650042,-75.936401 -75.705071,-199.009172 -0.200809,-275.037411l-124.12813,-116.174294l0,-0.000001z" id="svg_4" stroke="#000000"/>
  <path id="svg_1" d="m310.389361,3.384998l108.277066,196.192312l-44.663305,23.135078l136.385573,168.120552l-44.663305,28.072112l168.609589,281.479977l-285.946129,-215.715769l54.534779,-29.945264l-177.666282,-138.171651l63.663722,-42.69444l-187.586085,-144.948442l209.054393,-125.524442l-0.000018,-0.000023z" stroke-linecap="null" stroke-linejoin="null" stroke-dasharray="null" stroke-width="null" fill="#e8bf28"/>
 </g>
</svg>