<?xml version="1.0" encoding="UTF-8" standalone="no"?>
<!-- Created with Inkscape (http://www.inkscape.org/) -->

<svg
   xmlns:dc="http://purl.org/dc/elements/1.1/"
   xmlns:cc="http://creativecommons.org/ns#"
   xmlns:rdf="http://www.w3.org/1999/02/22-rdf-syntax-ns#"
   xmlns:svg="http://www.w3.org/2000/svg"
   xmlns="http://www.w3.org/2000/svg"
   xmlns:sodipodi="http://sodipodi.sourceforge.net/DTD/sodipodi-0.dtd"
   xmlns:inkscape="http://www.inkscape.org/namespaces/inkscape"
   width="600"
   height="600"
   id="svg2"
   version="1.1"
   inkscape:version="0.48.4 r9939"
   sodipodi:docname="New document 1">
  <defs
     id="defs4" />
  <sodipodi:namedview
     id="base"
     pagecolor="#ffffff"
     bordercolor="#666666"
     borderopacity="1.0"
     inkscape:pageopacity="0.0"
     inkscape:pageshadow="2"
     inkscape:zoom="0.35"
     inkscape:cx="284.67977"
     inkscape:cy="101.81096"
     inkscape:document-units="px"
     inkscape:current-layer="layer1"
     showgrid="false"
     fit-margin-top="0"
     fit-margin-left="0"
     fit-margin-right="0"
     fit-margin-bottom="0"
     inkscape:window-width="1920"
     inkscape:window-height="1018"
     inkscape:window-x="1272"
     inkscape:window-y="-8"
     inkscape:window-maximized="1" />
  <metadata
     id="metadata7">
    <rdf:RDF>
      <cc:Work
         rdf:about="">
        <dc:format>image/svg+xml</dc:format>
        <dc:type
           rdf:resource="http://purl.org/dc/dcmitype/StillImage" />
        <dc:title></dc:title>
      </cc:Work>
    </rdf:RDF>
  </metadata>
  <g
     inkscape:label="Layer 1"
     inkscape:groupmode="layer"
     id="layer1"
     transform="translate(-90.320227,-34.173132)">
    <path
       style="fill:#000000"
       d="m 198.57998,577.37278 c -3.10984,-4.72927 -3.54553,-7.68539 -2.22886,-15.12172 3.10568,-17.53956 16.07516,-42.52173 33.21336,-63.97644 8.24765,-10.32502 12.68163,-13.55195 18.02263,-13.11628 2.82263,0.2302 4.39807,1.73942 27.42266,26.26965 27.43581,29.22993 26.63415,27.96077 22.33697,35.36346 -2.65999,4.58237 -8.68213,8.76988 -26.30483,18.29101 -25.47145,13.76169 -52.3706,23.01443 -60.90992,20.9518 -3.9946,-0.96491 -8.91867,-4.65687 -11.55201,-8.66148 z m -36.99567,-51.47721 c -0.42926,-1.98756 -1.70117,-7.89578 -2.82658,-13.12944 -5.6303,-26.18462 -3.92132,-62.86007 4.09109,-87.7964 3.7948,-11.81025 9.95884,-16.13 17.92372,-12.56097 4.95826,2.22178 38.41408,37.82653 40.31276,42.90217 2.0536,5.48959 0.72873,11.48396 -4.54105,20.54728 -6.83051,11.74725 -16.70055,29.66457 -23.76455,43.1403 -8.30911,15.8508 -13.93444,20.79606 -20.86801,18.34495 -4.48457,-1.58535 -9.36604,-6.99642 -10.32742,-11.44786 z m 75.8936,81.28479 c -2.12572,-8.10346 2.45765,-11.8215 30.27977,-24.563 12.33108,-5.64712 26.94829,-12.5163 32.48282,-15.26472 10.91703,-5.42153 16.72243,-6.44923 22.30349,-3.94837 2.56653,1.15006 7.80609,6.21114 21.16906,20.44796 19.05914,20.30547 21.03673,23.20038 19.82134,29.0155 -1.16847,5.591 -5.94894,8.64579 -17.50194,11.18413 -29.13594,6.40165 -64.35244,4.7261 -93.24322,-4.43635 -9.21002,-2.92086 -13.79167,-6.64186 -15.31132,-12.43515 z M 193.54657,386.85394 c -6.97787,-12.16281 -1.9353,-24.35298 19.95206,-48.23301 14.42074,-15.73363 19.61434,-18.28684 29.76841,-14.63424 4.03495,1.45143 5.85259,3.19134 28.14363,26.94008 l 23.83012,25.38844 -0.14546,4.59429 c -0.14169,4.47454 -0.33304,4.77033 -7.34034,11.34753 -3.95717,3.71428 -14.73197,14.52503 -23.94407,24.02384 -23.58902,24.32346 -20.78605,24.65889 -49.3783,-5.90907 -10.51731,-11.24413 -19.91606,-21.82713 -20.88605,-23.51786 z m 72.30546,77.45359 c -1.72457,-3.20035 -2.08951,-7.56691 -0.91109,-10.90048 1.60818,-4.5493 17.55079,-21.71667 34.01448,-36.62754 l 13.95475,-12.63867 4.60665,0.40752 4.60667,0.40749 30.78568,32.79885 30.78568,32.79885 -0.15593,4.92572 c -0.13391,4.22849 -0.80872,5.68463 -4.76793,10.28748 -2.5366,2.94896 -13.05842,12.5413 -23.38183,21.3163 -20.38056,17.32372 -23.12574,18.92537 -30.17275,17.60375 -3.50342,-0.65707 -4.58462,-1.68935 -30.98956,-29.58795 -15.04773,-15.899 -27.81638,-29.75501 -28.37482,-30.79132 z m 80.0297,85.32329 c -0.68527,-1.12242 -1.01505,-3.99613 -0.73283,-6.38607 0.50683,-4.29181 0.62307,-4.43757 9.44069,-11.8366 4.91014,-4.12022 16.5379,-14.19602 25.83949,-22.39063 l 16.91187,-14.89939 4.36579,0.13825 4.3658,0.13824 23.60356,25.18103 c 21.41419,22.84524 23.74482,25.59669 25.1255,29.66165 3.41783,10.06273 0.36201,15.53531 -16.10434,28.84143 -22.15169,17.90026 -32.5685,22.62089 -43.50537,19.71565 l -5.78991,-1.53799 -21.13713,-22.29237 C 356.63939,561.7032 346.56705,550.75333 345.8817,549.63085 z M 133.20895,309.80425 c -1.1139,-3.77836 -1.00928,-6.36202 0.41223,-10.18143 l 1.90493,-5.11822 27.62387,-24.39083 c 27.74524,-24.49801 49.10265,-42.0616 68.98399,-56.73007 5.88492,-4.34191 11.09128,-8.25611 11.56968,-8.69821 0.47856,-0.44194 -0.57246,-2.81617 -2.33525,-5.27569 -1.7628,-2.45951 -5.14934,-8.57111 -7.52565,-13.58132 -15.38224,-32.43206 -11.97596,-72.55445 8.70859,-102.57781 7.6876,-11.158461 23.26477,-25.239014 34.88731,-31.535427 33.71908,-18.267035 72.11667,-17.308156 105.60474,2.637218 6.64738,3.959147 9.06736,6.123705 20.15412,18.026682 11.5946,12.448195 12.94736,14.233893 16.95856,22.385587 4.90337,9.96476 9.7539,25.86876 10.69034,35.05163 l 0.62398,6.11872 40.4281,1.39778 c 30.0448,1.03877 42.01653,1.95337 46.61271,3.56102 l 6.18463,2.16325 65.89814,69.78972 65.89809,69.78964 1.92629,5.7279 c 3.87876,11.53377 0.91436,24.55429 -7.36564,32.35184 -6.88582,6.48493 -11.59947,8.36854 -20.31652,8.11909 -9.52823,-0.2727 -15.1436,-3.27232 -24.21176,-12.93347 -3.50639,-3.73568 -6.67562,-6.51016 -7.04277,-6.16554 -0.36715,0.34462 -17.05076,22.84965 -37.07468,50.0112 -20.02393,27.16156 -36.93008,49.87548 -37.56922,50.47539 -1.02759,0.96452 -8.90293,-7.15629 -68.04746,-70.16847 l -66.88544,-71.2593 2.11814,-1.21626 c 6.93447,-3.98177 36.18755,-21.64408 36.79998,-22.21891 0.44045,-0.41342 -4.72036,-6.50191 -12.87905,-15.19413 l -13.61401,-14.50426 -9.88917,7.60044 c -5.56095,4.27396 -13.57943,9.41105 -18.32079,11.73734 -28.95308,14.20549 -64.10151,14.39375 -91.65372,0.4909 -4.22007,-2.12945 -8.01766,-3.35948 -8.9359,-2.89433 -10.06702,5.09952 -40.86059,25.73081 -59.26005,39.70345 -19.2317,14.60467 -23.50343,18.08769 -41.10431,33.51508 -14.53896,12.74357 -17.29586,14.81688 -20.80739,15.64807 -4.42935,1.04845 -12.76724,-1.3856 -15.79451,-4.61083 -1.02434,-1.09132 -2.53415,-4.26267 -3.35513,-7.04744 z M 286.72548,176.61896 c 16.68996,-10.18782 36.91584,-20.43398 52.8072,-26.75141 13.80315,-5.48728 31.95179,-10.47403 33.30587,-9.15154 0.41603,0.40633 -1.95353,13.55098 -5.26571,29.21037 l -6.02215,28.4716 -7.88507,1.63537 c -11.68759,2.42402 -35.20077,9.82863 -37.21542,11.71962 -0.92483,0.86807 10.19766,1.40016 17.47004,0.83579 16.24156,-1.26047 29.93299,-7.37693 42.16034,-18.8346 22.76952,-21.33614 28.8273,-53.33611 15.57883,-82.29399 -2.7881,-6.0941 -4.6265,-8.55748 -13.03436,-17.465579 -8.71553,-9.234067 -10.59271,-10.780692 -17.12567,-14.110145 -10.67394,-5.439878 -19.15398,-7.574955 -31.83985,-8.016566 -18.95058,-0.659684 -36.05097,5.847389 -50.17251,19.091759 -12.5885,11.807151 -19.71962,25.939601 -21.73309,43.073421 -1.81076,15.40895 1.75059,31.94922 9.6504,44.82007 4.68837,7.63856 2.78725,7.85839 19.32115,-2.23417 z m -19.28645,130.78598 c -1.903,-5.43926 -0.0429,-10.81508 5.13569,-14.8426 12.87747,-10.01509 57.25339,-24.81083 74.17542,-24.73139 10.11756,0.0474 12.26913,1.41712 28.66123,18.2452 15.8799,16.30227 17.53595,18.74967 16.26055,24.02989 -0.75059,3.10759 -1.99612,4.10702 -32.04484,25.71467 -17.81187,12.80832 -32.80033,22.97483 -34.83482,23.62807 -7.53184,2.41825 -7.68768,2.30345 -33.16464,-24.43136 -18.62209,-19.54153 -23.18874,-24.75452 -24.18859,-27.61248 z m 78.0519,83.54022 c -1.91857,-4.32446 -1.77131,-8.8403 0.41965,-12.86741 4.63727,-8.52322 42.35219,-37.12412 57.05253,-43.26539 6.62395,-2.76727 12.31093,-2.56825 17.5463,0.61392 1.94443,1.18183 11.08357,10.21033 20.6813,20.43087 13.89349,14.7943 17.48278,19.07643 18.68314,22.28522 3.95774,10.57982 0.19483,19.54206 -16.75679,39.90949 -4.66994,5.611 -12.86575,14.30817 -18.21287,19.32711 -11.77606,11.05324 -16.48706,12.99738 -24.68102,10.18508 -4.86587,-1.67006 -5.19637,-1.98326 -29.14628,-27.6198 -14.88449,-15.9327 -24.74949,-27.11369 -25.58596,-28.99909 z m 79.70239,85.69427 c -2.29523,-3.64075 -1.51629,-10.0944 1.78754,-14.80982 6.50434,-9.28327 47.22775,-58.09012 49.54556,-59.38002 1.54894,-0.86205 3.86953,-0.79633 6.35744,0.18006 3.3847,1.32832 5.81394,3.63588 17.84448,16.95047 18.69356,20.68876 19.17384,22.06863 14.51807,41.71032 -3.51458,14.82733 -10.08246,31.5422 -18.60174,47.34009 -7.69164,14.26332 -10.74003,17.60371 -17.07987,18.71623 -6.25603,1.09776 -8.43471,-0.66686 -31.67562,-25.65556 -11.78409,-12.6703 -21.99725,-23.94362 -22.69586,-25.05177 z"
       id="path2996"
       inkscape:connector-curvature="0" />
  </g>
</svg>
