<?xml version="1.0"?>
<svg width="300" height="300" xmlns="http://www.w3.org/2000/svg" xmlns:svg="http://www.w3.org/2000/svg">
 <title>Brain</title>
 <metadata id="metadata9">image/svg+xmlBrain03/07/2013edited by Paul ShermanPDWPClipartbrainanatomymedical</metadata>

 <g>
  <title>Layer 1</title>
  <path fill="black" id="path3" d="m299,148.917443c0,12.69014 -4.974773,24.21255 -13.062504,32.7918c-1.38817,18.105792 -12.859938,33.387581 -28.850707,40.277791l0,0.169798c-19.52673,11.370485 -31.201064,30.781038 -34.754899,54.064169l-18.055151,0l0,-54.013527c0.119156,-16.836768 5.415651,-27.61744 16.515056,-34.269337c4.060249,-2.335462 7.751114,-5.007541 10.896839,-7.968574c8.239655,2.961033 15.532017,8.763942 20.170174,17.02147c0.965166,1.623504 2.689952,2.538028 4.399844,2.538028c0.828136,0 1.692019,-0.202566 2.469513,-0.661317c2.472492,-1.355402 3.351269,-4.432612 1.963099,-6.869358l-0.032768,0c-5.195212,-9.240567 -13.095272,-16.059283 -22.064758,-20.119533c4.60241,-7.074902 7.158312,-15.499249 7.039155,-25.618593c0,-0.050641 0.068515,-0.101283 0.068515,-0.169798c0,-4.569642 -0.676212,-9.017149 -1.894584,-13.199533c10.542349,-2.013741 19.830579,-7.360877 26.667168,-14.894529c1.894584,-2.079277 1.757555,-5.278622 -0.339595,-7.140438c-2.082255,-1.876711 -5.22798,-1.709892 -7.089797,0.321722c-5.957812,6.4821 -13.994901,10.91471 -23.131207,12.133083c-7.343004,-13.604663 -20.99831,-23.265256 -37.003973,-25.025789c1.066448,-8.629892 4.9569,-16.327386 10.810451,-22.183916c1.930331,-1.963099 1.930331,-5.165423 0,-7.110649c-1.963099,-1.980973 -5.213086,-1.980973 -7.173206,0c-7.494928,7.500886 -12.505448,17.515969 -13.756589,28.668994c-18.799877,-2.36823 -33.283319,-18.326232 -33.316087,-37.754658c0,-2.758468 -2.284821,-5.058184 -4.992647,-5.058184c-2.85975,0 -5.09393,2.299716 -5.09393,5.058184c0,3.282755 0.321722,6.413585 0.947292,9.493774c-7.125544,6.163357 -15.990769,9.276314 -24.873867,9.276314c-4.381971,0 -8.781816,-0.777495 -12.925474,-2.284821c0,0 -0.068515,-0.017873 -0.119156,-0.032768c-5.108824,-1.843943 -9.797623,-4.778166 -13.857875,-8.838415c-1.945226,-1.963099 -5.159466,-1.963099 -7.140438,0c-1.980973,1.963099 -1.980973,5.150529 0,7.128523c4.161532,4.146637 8.85033,7.360877 13.840001,9.678466c-0.997934,12.570985 -8.308172,23.384415 -18.5288,29.458405c-5.904192,-8.969487 -14.78729,-16.074178 -25.702003,-19.544604c-2.7257,-0.84601 -5.549703,0.62557 -6.413586,3.282755c-0.744727,2.657184 0.610676,5.484166 3.300628,6.312302c8.105605,2.570796 14.620473,7.563443 19.306292,13.926387c-3.145725,0.846009 -6.377838,1.301782 -9.812517,1.301782c0,0 0,0 -0.05362,0l-0.560034,0c-12.961222,0 -24.873868,5.162442 -33.536527,13.607642c-2.049487,1.945226 -2.09715,5.144571 -0.083409,7.125544c0.962187,1.015807 2.284821,1.522221 3.655118,1.522221c1.152837,0 2.418872,-0.473646 3.401911,-1.420938c6.872337,-6.702539 16.243976,-10.744915 26.565887,-10.744915l0.542161,0l0.014895,0l0.05362,0c24.295959,0 44.484009,-18.093874 47.647608,-41.543825c3.452552,0.744727 6.902126,1.149858 10.405319,1.149858c9.866137,0 19.815684,-3.062316 28.18939,-9.121411c3.062316,6.988514 7.903038,13.095272 13.774462,17.834712c-5.99058,7.378751 -9.508669,16.142693 -10.438087,25.109198c-2.523134,-0.405131 -5.177339,-0.62557 -7.834523,-0.62557c-7.614084,0 -15.347325,1.808196 -22.538404,5.653964c-2.469513,1.304761 -3.401911,4.364098 -2.09715,6.83659c0.914524,1.674145 2.689952,2.657184 4.501127,2.657184c0.828136,0 1.572862,-0.184692 2.299716,-0.610676c5.788015,-3.029548 11.84711,-4.468359 17.834712,-4.468359c2.672079,0 5.31139,0.288954 7.834523,0.828136c1.099216,10.220627 5.516934,20.220815 13.113145,28.174495c1.015807,1.051554 2.317589,1.557968 3.62235,1.557968c1.236246,0 2.520155,-0.458752 3.521067,-1.38817c2.064382,-1.945226 2.115023,-5.111803 0.151924,-7.125544l-0.032768,0c-6.75318,-7.140438 -10.32191,-16.208229 -10.557244,-25.380281c0,-0.13703 0.032768,-0.238312 0,-0.390237c0,-0.184692 0,-0.372363 0,-0.560034c0,-8.903949 3.080189,-17.703638 9.172052,-24.775561c6.413585,3.199345 13.720842,5.061162 21.457061,5.061162c0,0 0.032768,0.014895 0.083409,0.014895c0,0 0.032768,0 0.083409,0c20.947668,0.068515 37.903603,16.994658 37.987012,37.939348c-3.973861,-1.048575 -8.069857,-1.590736 -12.267136,-1.590736c-6.005475,0 -12.097338,1.099216 -17.968762,3.521067c-2.606543,1.066448 -3.842789,3.991734 -2.791235,6.565509c1.06347,2.570796 3.958966,3.824916 6.547636,2.776341c4.703693,-1.876711 9.493774,-2.791235 14.212362,-2.791235c3.807042,0 7.581316,0.574929 11.117278,1.674145c-1.236246,5.650985 -3.655118,10.18488 -7.411519,14.212362c-0.288954,0.253207 -0.560034,0.542161 -0.777495,0.878777c-2.877623,2.826982 -6.330176,5.430546 -10.59299,8.019216c-14.602598,8.528608 -21.608986,23.99509 -21.457061,42.94987l0,54.013527l-17.227015,0l0,-51.362301c0,-18.865413 -11.826258,-36.756724 -26.71781,-43.119667c-7.10767,-2.758467 -14.519189,-7.378751 -19.916967,-13.419972c-7.697494,5.22798 -16.938061,8.308169 -26.872713,8.308169c-9.967423,0 -19.205011,-3.029548 -26.851864,-8.221781c-7.614084,5.007541 -16.80401,7.935806 -26.631423,7.935806c-27.027616,0.002979 -48.871932,-21.894961 -48.871932,-48.883851c0,-20.173151 12.198617,-37.483576 29.663945,-44.930841c4.721566,-21.528555 23.789545,-37.635502 46.733082,-37.635502c1.218373,0 2.335462,0.101283 3.470426,0.169798c8.647765,-12.639499 23.181851,-20.932774 39.646266,-20.932774c8.156245,0 15.806076,2.031614 22.52351,5.650985c7.578337,-5.040309 16.646128,-7.965595 26.408004,-7.965595c12.538216,0 23.959343,4.891364 32.520719,12.82717c3.586603,-0.863883 7.292362,-1.370297 11.167919,-1.370297c19.374806,0 36.125196,11.659439 43.605229,28.359188c19.66376,5.957812 33.977404,24.200634 33.977404,45.791747c0,4.33133 -0.574929,8.510735 -1.641377,12.487575c6.12761,8.057939 9.815496,18.108769 9.815496,29.020502z"/>
 </g>
</svg>