<?xml version="1.0"?>
<svg width="800" height="800" xmlns="http://www.w3.org/2000/svg" xmlns:svg="http://www.w3.org/2000/svg">

 <metadata id="metadata7">image/svg+xmlShamrockplant green st-patrick Shamrock</metadata>
 <g>
  <title>Layer 1</title>
  <path fill="#000000" id="path2396" d="m406.139793,796.011288c-6.56186,-2.50425 -15.561836,-16.990297 -18.898019,-30.417599c-0.575392,-2.315734 -3.383643,-13.528486 -6.240575,-24.917188c-4.285435,-17.083162 -5.18183,-29.086231 -5.122304,-68.591045c0.039684,-26.33638 1.186993,-59.531856 2.549623,-73.76774c5.520494,-57.675206 5.866757,-74.73647 1.628563,-80.238583c-3.134201,-4.068872 -4.989295,-4.594748 -8.668723,-2.457301c-10.136096,5.888279 -25.996035,47.556979 -30.490539,80.107547c-2.852736,20.66053 -16.703906,71.433928 -22.882929,83.880613c-6.943559,13.986725 -30.364346,37.674636 -44.430742,44.937465c-7.136626,3.684845 -17.043091,5.739499 -31.500226,6.533292c-18.516101,1.01667 -22.832254,0.360166 -35.370623,-5.380075c-17.899938,-8.19488 -41.84823,-25.465692 -53.050366,-38.258389c-4.710889,-5.379762 -16.687738,-23.453426 -26.615214,-40.163657c-9.927508,-16.710252 -20.143381,-32.232978 -22.701931,-34.494905c-2.558576,-2.261948 -5.723522,-6.017655 -7.033223,-8.346029c-1.309701,-2.328343 -8.205042,-10.590505 -15.322982,-18.360348c-29.352026,-32.040244 -34.163365,-38.800735 -41.945939,-58.939022c-11.224473,-29.044636 -9.801738,-54.173731 4.75776,-84.034413c12.927084,-26.512694 37.255941,-45.144477 69.708282,-53.384782c15.10828,-3.836277 55.048464,-4.497468 148.786422,-2.463084c53.279663,1.156317 54.688658,1.052002 64.065803,-4.743402c9.60352,-5.935291 14.075352,-14.911793 11.183213,-22.448582c-0.848507,-2.211168 -7.089082,-6.543009 -13.867943,-9.626274c-11.767613,-5.352373 -15.399675,-5.577797 -80.284687,-4.983095c-59.913231,0.54911 -70.344977,0.029142 -88.107491,-4.391691c-63.143811,-15.715606 -97.192875,-54.145727 -96.569991,-108.995606c0.340962,-30.026267 9.047808,-50.219998 29.631981,-68.725192c23.756679,-21.357282 55.775317,-45.161845 60.745553,-45.161845c3.037787,0 25.733348,-25.602291 43.595105,-49.17849c35.823184,-47.28403 66.756232,-66.300264 107.016804,-65.789093c27.808335,0.35305 48.296767,12.677697 71.250881,42.860374c15.034844,19.76952 21.122986,32.172306 26.156693,53.286545c5.493544,23.042971 5.491623,74.943127 -0.004332,117.59996c-5.024481,38.997696 -5.270635,55.612411 -0.949378,64.081825c4.096448,8.028773 15.824607,12.12159 24.026439,8.384597c10.029589,-4.569791 12.301589,-19.312419 11.807089,-76.6146c-0.244964,-28.385595 0.729162,-57.504434 2.164699,-64.70854c1.435579,-7.204085 3.092784,-16.010243 3.682727,-19.569209c4.700576,-28.358416 22.67027,-66.829273 38.331234,-82.06244c6.234563,-6.064251 20.357177,-15.182771 31.89541,-20.593802c16.953274,-7.950557 23.521814,-9.686221 36.236781,-9.575181c37.949285,0.331385 62.58149,17.564796 108.710342,76.056987c7.117942,9.025653 16.472417,19.983661 20.787756,24.351126c8.813558,8.919992 51.448127,40.295058 54.755689,40.295058c1.177046,0 8.597642,6.747109 16.490213,14.993594c27.531723,28.766271 33.121514,60.666514 17.924759,102.294454c-11.445828,31.353199 -25.601488,45.813099 -61.783637,63.111426c-7.669975,3.666924 -17.570387,7.61311 -22.000896,8.769302c-4.43052,1.156181 -16.791145,4.609914 -27.468053,7.674944c-18.366788,5.272608 -22.201291,5.45196 -71.179393,3.329074c-79.672073,-3.453263 -101.880534,1.467519 -102.153378,22.634301c-0.176158,13.667058 2.942814,14.039133 108.624231,12.958532c86.764422,-0.887179 99.415488,2.080529 130.71009,30.662323c39.778848,36.330575 57.840916,81.938353 47.733179,120.529122c-8.707615,33.245306 -19.283068,47.093762 -52.908705,69.283435c-22.849361,15.07838 -40.935269,33.236663 -61.884685,62.132363c-18.10645,24.974407 -32.321751,38.536806 -52.002341,49.613898c-11.156211,6.279216 -15.697642,7.270188 -32.917414,7.182803c-25.923117,-0.131589 -42.256023,-7.405889 -63.665776,-28.355336c-27.40479,-26.815578 -38.369488,-52.973879 -52.360127,-124.91455c-5.674754,-29.179951 -18.380097,-58.480657 -26.471977,-61.048912c-10.042303,-3.187308 -10.969604,1.976308 -10.408658,57.96118c0.60801,60.680949 3.277616,79.75236 17.823429,127.328128c7.587924,24.818227 10.10781,37.851389 10.818518,55.954916c0.85073,21.670113 0.436288,24.165073 -5.066837,30.500402c-6.834849,7.868481 -20.244971,10.617664 -31.269238,6.410418z"/>
 </g>
</svg>