<?xml version="1.0"?>
<svg width="100" height="100" xmlns="http://www.w3.org/2000/svg" xmlns:svg="http://www.w3.org/2000/svg">
 <g>
  <title>Layer 1</title>
  <polygon id="svg_4" points="31.578,7.861 31.581,7.854 31.578,7.861 31.573,7.874 "/>
  <polygon id="svg_5" points="55.551,28.84 55.55,28.84 55.55,28.841 "/>
  <polygon id="svg_6" points="44.949,45.252 44.952,45.248 44.95,45.249 "/>
  <polygon id="svg_7" points="44.954,45.241 44.952,45.245 44.952,45.246 "/>
  <g stroke="null" id="svg_9">
   <path stroke="null" id="svg_1" d="m52.396889,48.868534c-0.206533,0.551985 -0.340534,1.118721 -0.398314,1.695293c-0.065156,0.636811 -0.047945,1.277309 0.070074,1.911661c0.071303,0.379874 0.161047,0.758518 0.296277,1.128556c0.633123,1.711275 1.891992,3.072181 3.550404,3.834387c0.902353,0.415525 1.861258,0.624517 2.845978,0.624517c1.224447,0 2.396031,-0.342993 3.418862,-0.939234c0.553214,-0.322093 1.060941,-0.717949 1.50843,-1.185107c0.399543,-0.416754 0.744995,-0.891289 1.031437,-1.407622c0.082367,-0.148753 0.175799,-0.291359 0.247102,-0.448718c0,0 13.618897,-29.62522 13.648402,-29.685459c0.028275,-0.063927 0.410608,-1.197401 0.491746,-1.653495c0.534773,-2.984896 -0.962592,-6.074289 -3.844222,-7.400773c-0.899895,-0.415525 -1.858799,-0.624517 -2.84352,-0.624517c-2.075167,0 -4.005269,0.958904 -5.286266,2.522655c-0.360204,0.441342 -0.67738,0.922023 -0.919564,1.454338c0.001229,-0.004917 0.002459,-0.009835 0.004917,-0.013523l-0.007376,0.014752c-0.001229,0.001229 -0.002459,0.004917 -0.004917,0.007376l-13.641026,29.679312c-0.071303,0.158588 -0.109413,0.323323 -0.168423,0.485599z"/>
   <path stroke="null" id="svg_2" d="m58.540022,16.247353c0.288901,0.29013 0.476993,0.668774 0.614682,1.08307c0.323323,0.982262 0.269231,2.239902 0.001229,3.514752c-0.137689,0.650334 -0.322093,1.29575 -0.543379,1.906744c-0.083597,0.234809 -0.168423,0.472076 -0.263084,0.693361c-0.138918,0.338075 -0.322093,0.731472 -0.533544,1.146997c-1.848964,3.657359 -6.606604,9.80418 -17.780296,10.185283c-0.006147,0 -0.014752,0.001229 -0.020899,0.001229l-4.655603,9.694767c2.908676,0.687215 8.085529,2.312434 12.572708,5.814893l15.176502,-33.019495c0.248332,-0.538462 0.393397,-1.092905 0.492975,-1.652266c0.531085,-2.988585 -0.962592,-6.079206 -3.844222,-7.403232c-0.902353,-0.413066 -1.861258,-0.624517 -2.84352,-0.624517c-2.075167,0 -4.004039,0.957675 -5.283808,2.522655c-0.363892,0.441342 -0.681068,0.923253 -0.926941,1.455567c0.002459,-0.004917 0.002459,-0.007376 0.007376,-0.012294l-0.007376,0.012294l-0.003688,0.008606l-1.917808,4.173692l9.259572,0l0.499122,0.497893z"/>
   <path stroke="null" id="svg_3" d="m40.572863,15.748231l1.662101,0l2.788198,0l2.565683,-5.592378c0.245873,-0.538462 0.392167,-1.094134 0.490516,-1.652266c0.532315,-2.986126 -0.961363,-6.076748 -3.842993,-7.402002c-0.904812,-0.413066 -1.861258,-0.626976 -2.844749,-0.626976c-2.075167,0 -4.005269,0.960133 -5.285037,2.523885c-0.360204,0.441342 -0.678609,0.923253 -0.923253,1.456797c0,0.002459 -0.004917,0.004917 -0.004917,0.007376l-5.179312,11.285564l5.672287,0l4.901475,0z"/>
   <path fill="black" id="svg_8" d="m88.910237,41.382935c0,-0.767123 -0.427819,-2.354233 -0.44503,-2.368985c-0.965051,-2.600105 -3.448367,-4.460134 -6.38163,-4.460134c-0.615912,0 -1.203548,0.108184 -1.771514,0.261855c-0.98718,0.265543 -1.878469,0.746224 -2.636986,1.390411c-0.89006,0.758518 -1.576045,1.727257 -1.985423,2.845978c-0.004917,0.014752 -0.007376,0.031963 -0.014752,0.046716l-8.530559,18.42817l0.002459,0c-0.25202,0.549526 -0.378644,1.12241 -0.408149,1.692835c-0.009835,0.204074 0,0.40569 0.015982,0.604847c0.130313,1.60432 1.091675,3.095539 2.655427,3.814717c0.742536,0.342993 1.542852,0.44503 2.323498,0.365121c1.017914,-0.105725 2.000176,-0.531085 2.756235,-1.224447c0.362662,-0.333158 0.662627,-0.737619 0.898665,-1.182648l4.431858,-9.57306l3.099227,1.429751l0.307341,-0.667545l-4.600281,10.010713l-0.007376,0.014752c-0.076221,0.165964 -0.168423,0.318405 -0.259396,0.474535c-0.190551,0.341763 -0.402002,0.673692 -0.636811,0.982262c-0.480681,0.63804 -1.057253,1.188795 -1.695293,1.651036c-1.23674,0.901124 -2.720583,1.454338 -4.295399,1.533017c-0.136459,0.008606 -0.268001,0.025817 -0.402002,0.025817l-0.001229,0c-1.159291,0 -2.285388,-0.248332 -3.347559,-0.73516c-1.588339,-0.732701 -2.807868,-1.925184 -3.609414,-3.343871c-0.38602,-0.684756 -0.660169,-1.422374 -0.833509,-2.189498c-0.065156,-0.286442 -0.118019,-0.572884 -0.151212,-0.866702c-0.528627,0.27046 -1.072006,0.506498 -1.64366,0.682297c-0.953987,0.292589 -1.958377,0.452406 -2.981208,0.452406c0,0 0,0 -0.001229,0c-1.186337,0 -1.979276,-0.211451 -3.086934,-0.610994c0.629435,2.060415 1.021602,4.337197 1.021602,6.921321l0,12.940288l-3.413945,0l0,-12.940288c0,-3.099227 -0.968739,-5.72392 -1.964524,-7.963822c-4.664208,-10.504918 -17.98437,-12.321918 -18.664208,-12.406744l-2.353003,-0.295047l7.555673,-15.738321l1.075694,0c0.285213,0 0.528627,-0.035652 0.801546,-0.043028c0.661398,-0.01967 1.320337,-0.040569 1.927643,-0.103267c6.511943,-0.674921 10.084475,-3.710221 11.972779,-6.312786c0.163505,-0.224974 0.306112,-0.451177 0.449947,-0.673692c0.334387,-0.523709 0.613453,-1.035125 0.848261,-1.534247c0.269231,-0.569196 0.478223,-1.113804 0.635581,-1.614155c0.239726,-0.772041 0.366351,-1.443274 0.403231,-1.939937l-28.248332,0c-3.380752,0 -6.336143,1.792413 -7.990868,4.474886c-0.38602,0.626976 -0.703196,1.298209 -0.936776,2.010011l-8.873551,19.030559l-0.456094,0.978574c-0.437654,1.084299 -0.684756,2.266948 -0.684756,3.509835c0,1.698981 0.458553,3.288549 1.246575,4.664208l0.960133,1.376888l21.806464,28.878996l0,39.319987l40.975941,0l0,0.003688l3.413945,0l0.002459,-29.024061l10.844222,-22.075694c0.152441,-0.274148 0.298736,-0.548296 0.414296,-0.844573c0.285213,-0.730242 0.451177,-1.518265 0.4647,-2.345627c0.002459,-0.041798 0.001229,-27.738146 0.001229,-27.738146z"/>
  </g>
 </g>
</svg>