<?xml version="1.0" encoding="UTF-8" standalone="no"?>
<svg
   xmlns:dc="http://purl.org/dc/elements/1.1/"
   xmlns:cc="http://creativecommons.org/ns#"
   xmlns:rdf="http://www.w3.org/1999/02/22-rdf-syntax-ns#"
   xmlns:svg="http://www.w3.org/2000/svg"
   xmlns="http://www.w3.org/2000/svg"
   xmlns:sodipodi="http://sodipodi.sourceforge.net/DTD/sodipodi-0.dtd"
   xmlns:inkscape="http://www.inkscape.org/namespaces/inkscape"
   version="1.1"
   x="0px"
   y="0px"
   viewBox="0 0 100 100"
   enable-background="new 0 0 100 100"
   xml:space="preserve"
   id="svg3097"
   inkscape:version="0.48.4 r9939"
   width="100%"
   height="100%"
   sodipodi:docname="mine.svg"><metadata
     id="metadata3113"><rdf:RDF><cc:Work
         rdf:about=""><dc:format>image/svg+xml</dc:format><dc:type
           rdf:resource="http://purl.org/dc/dcmitype/StillImage" /><dc:title></dc:title></cc:Work></rdf:RDF></metadata><defs
     id="defs3111" /><sodipodi:namedview
     pagecolor="#ffffff"
     bordercolor="#666666"
     borderopacity="1"
     objecttolerance="10"
     gridtolerance="10"
     guidetolerance="10"
     inkscape:pageopacity="0"
     inkscape:pageshadow="2"
     inkscape:window-width="737"
     inkscape:window-height="1002"
     id="namedview3109"
     showgrid="false"
     inkscape:zoom="2.36"
     inkscape:cx="50"
     inkscape:cy="50"
     inkscape:window-x="2179"
     inkscape:window-y="0"
     inkscape:window-maximized="0"
     inkscape:current-layer="svg3097" /><g
     id="g3115"
     transform="matrix(1.1683833,0,0,1.1683833,0.29683347,0.20313533)"><path
       inkscape:connector-curvature="0"
       id="path3099"
       d="m 73.29061,72.561068 0.011,-0.008 -0.015,-0.021 c 0,-0.007 0,-0.011 0,-0.015 l -1.376,-2.52 -0.018,0.01 -4.484,-8.132 c -2.451,4.689 -14.514,7.199 -25.942,7.199 -11.428,0 -23.491,-2.51 -25.942,-7.199 l -4.48,8.122 -0.015,-0.008 -1.3619998,2.475 -0.021,0.061 c 0,0.003 0,0.003 0,0.007 l -0.015,0.021 0.011,0.008 c -0.021,0.151 -0.031,0.292 -0.031,0.429 0,5.559 14.2909998,11.486 31.8549998,11.486 17.563,0 31.854,-5.928 31.854,-11.486 0.001,-0.134 -0.012,-0.278 -0.03,-0.429 z" /><path
       inkscape:connector-curvature="0"
       id="path3101"
       d="m 50.04761,51.647068 v 3.897 h -0.018 c -0.287,1.814 -3.943,3.202 -8.564,3.202 -4.618,0 -8.276,-1.388 -8.56,-3.202 h -0.011 l -0.002,-0.104 c -0.004,-0.041 -0.006,-0.084 -0.006,-0.126 0,-0.017 0,-0.033 0.001,-0.05 l -0.001,-0.062 v -3.556 c -9.773,1.099 -16.763,4.021 -16.763,7.453 0,4.374 11.346,7.919 25.342,7.919 13.998,0 25.343,-3.545 25.343,-7.919 0.001,-3.432 -6.988,-6.353 -16.761,-7.452 z" /><path
       inkscape:connector-curvature="0"
       id="path3103"
       d="m 41.46561,47.346068 c -4.649,0 -7.892,1.447 -7.892,2.746 0,1.298 3.242,2.745 7.892,2.745 4.652,0 7.895,-1.447 7.895,-2.745 -10e-4,-1.299 -3.243,-2.746 -7.895,-2.746 z" /><path
       inkscape:connector-curvature="0"
       id="path3105"
       d="m 14.99661,59.089068 c 0.003,-1.289 0.673,-2.445 1.85,-3.466 l -6.147,-1.229 14.896,-4.964 -4.965,-19.861 14.896,9.93 4.965,-19.86 4.966,19.86 19.859,-14.896 -9.93,19.861 h 19.86 l -15.896,7.948 c 2.098,0.633 3.911,1.396 5.317,2.279 l 19.129,-13.067 -21.333,-0.475 15.174,-29.879 -30.282,18.728 -7.172,-28.6880002 -7.171,28.6880002 -21.516,-14.344 8.292,30.803 -19.03499983,8.417 14.24299983,4.215 z" /><path
       inkscape:connector-curvature="0"
       id="path3107"
       d="m 33.35861,51.647068 v 3.778 c 0,0 1.375,2.75 8.109,2.75 6.734,0 8.078,-2.75 8.078,-2.75 v -3.778 c 0,0 -0.347,2.778 -8.08,2.778 -7.733,0 -8.107,-2.778 -8.107,-2.778 z" /></g></svg>