<?xml version="1.0"?>
<svg width="480" height="480" xmlns="http://www.w3.org/2000/svg" xmlns:svg="http://www.w3.org/2000/svg">
 <g>
  <title>Layer 1</title>
  <g stroke="null" id="clock">
   <path stroke="null" id="svg_1" d="m240.22531,2.998c-130.882105,0 -237.00031,106.118206 -237.00031,237.001627c0,130.896588 106.118206,237.001627 237.00031,237.001627c130.884738,0 236.997677,-106.105039 236.997677,-237.001627c0,-130.883421 -106.112939,-237.001627 -236.997677,-237.001627zm0,410.805805c-95.828442,0 -173.802861,-77.963885 -173.802861,-173.804178c0,-95.828442 77.974419,-173.796278 173.802861,-173.796278s173.797594,77.967835 173.797594,173.796278c0,95.840292 -77.969152,173.804178 -173.797594,173.804178z"/>
   <path stroke="null" id="svg_2" d="m335.931302,218.935566l-79.866471,0c-5.788074,0 -13.865835,-3.362771 -17.939607,-7.48131l-66.777471,-67.448972c-4.084305,-4.111955 -10.782197,-4.146189 -14.904686,-0.061883l-14.95867,14.815153c-4.125122,4.085622 -4.152772,10.776931 -0.07505,14.894153l79.146254,79.933621c4.071139,4.113272 12.151533,7.47736 17.939607,7.47736l97.436094,0c5.784124,0 10.530714,-4.72684 10.530714,-10.533347l0,-21.062744c0,-5.782808 -4.747906,-10.53203 -10.530714,-10.53203z"/>
  </g>
 </g>
</svg>