<?xml version="1.0"?>
<svg width="1024" height="1024" xmlns="http://www.w3.org/2000/svg" xmlns:svg="http://www.w3.org/2000/svg">
 <metadata>Free Icon Download -- www.onlinewebfonts.com</metadata>
 <g>
  <title>Layer 1</title>
  <path transform="rotate(-34.363258361816406 522.6193237304688,584.0225219726562) " fill="black" id="svg_1" d="m491.603666,1019.844835l49.626746,0c3.175038,-0.65113 6.32139,-1.576177 9.527627,-1.911086c31.610706,-3.362775 63.450966,-5.217845 94.778476,-10.281297c38.658184,-6.249958 75.441283,-1.558754 111.565676,12.192383l17.372293,0c0.764747,-0.856562 1.372309,-1.954666 2.307981,-2.523635c81.810086,-49.308656 143.175138,-117.212794 178.371333,-205.774157c42.913619,-107.978562 65.531904,-220.939644 72.719097,-336.932339c1.067912,-17.216001 3.082725,-34.367277 4.6584,-51.549674l0,-71.815964c-0.848344,-4.784582 -1.929984,-9.545501 -2.511347,-14.371157c-5.782442,-48.135861 -23.687441,-90.229678 -59.512412,-124.28571c-29.169229,-27.735106 -59.556082,-53.078548 -99.259721,-64.39197l-29.77929,0c-9.465255,3.959142 -20.06828,6.343337 -28.184913,12.17496c-23.774769,17.095248 -47.655591,34.36853 -69.249634,54.029741c-9.730968,8.860743 -15.777904,22.958006 -20.430062,35.784108c-3.69153,10.160532 -4.002169,22.313082 8.690511,29.297596c1.566946,0.860309 2.391578,3.903115 2.705959,6.058226c2.490133,16.923432 10.783922,28.15467 25.977976,29.28639c4.90791,7.984252 7.348132,15.780518 12.659007,19.760819c10.131446,7.592075 21.352005,13.025305 31.344981,21.80014c16.172128,14.195618 51.428219,5.984764 64.325509,-11.430452c3.384634,2.121506 6.683184,4.520641 10.274915,6.343337c4.027125,2.049286 8.292533,3.672778 12.515526,5.317441c9.344242,3.642897 12.419481,9.845552 9.117188,19.580291c-21.809869,64.375776 -51.078909,124.101447 -101.744868,171.65464c-41.468941,38.921522 -72.773995,85.227217 -94.810917,137.691986c-3.375905,8.029074 -7.000065,15.956057 -11.443883,26.074262c-28.934689,-149.057688 -117.722383,-212.362759 -266.232085,-192.14752c29.962687,-90.586997 -13.920289,-166.443024 -73.178203,-202.488579c-59.466255,-36.17255 -124.722449,-46.000667 -192.196809,-33.15589c-72.79021,13.851998 -114.602231,63.110856 -136.163832,131.120819c-5.927167,18.678896 -8.58197,38.397387 -12.737594,57.640275l0,51.996637c2.788288,12.788751 4.791872,25.807827 8.493387,38.325166c22.4636,75.923259 74.645338,125.502085 143.796416,159.497114c7.727397,3.79852 11.695893,8.467313 14.477951,16.532497c17.982355,52.160983 43.063318,100.723878 76.476754,144.79353c47.49342,62.653929 106.501824,109.001952 184.575454,127.431847c16.774716,3.957889 34.038468,5.835359 51.07641,8.675227l0,0zm0,0"/>
 </g>
</svg>