<?xml version="1.0" encoding="UTF-8" standalone="no"?>
<svg
   xmlns:dc="http://purl.org/dc/elements/1.1/"
   xmlns:cc="http://creativecommons.org/ns#"
   xmlns:rdf="http://www.w3.org/1999/02/22-rdf-syntax-ns#"
   xmlns:svg="http://www.w3.org/2000/svg"
   xmlns="http://www.w3.org/2000/svg"
   xmlns:sodipodi="http://sodipodi.sourceforge.net/DTD/sodipodi-0.dtd"
   xmlns:inkscape="http://www.inkscape.org/namespaces/inkscape"
   width="50"
   height="50"
   id="svg3016"
   version="1.1"
   inkscape:version="0.48.4 r9939"
   sodipodi:docname="cure_addictions.svg">
  <metadata
     id="metadata3045">
    <rdf:RDF>
      <cc:Work
         rdf:about="">
        <dc:format>image/svg+xml</dc:format>
        <dc:type
           rdf:resource="http://purl.org/dc/dcmitype/StillImage" />
        <dc:title></dc:title>
      </cc:Work>
    </rdf:RDF>
  </metadata>
  <defs
     id="defs3043" />
  <sodipodi:namedview
     pagecolor="#ffffff"
     bordercolor="#666666"
     borderopacity="1"
     objecttolerance="10"
     gridtolerance="10"
     guidetolerance="10"
     inkscape:pageopacity="0"
     inkscape:pageshadow="2"
     inkscape:window-width="943"
     inkscape:window-height="1002"
     id="namedview3041"
     showgrid="false"
     inkscape:zoom="15.66"
     inkscape:cx="26.211426"
     inkscape:cy="24.808429"
     inkscape:window-x="2106"
     inkscape:window-y="0"
     inkscape:window-maximized="0"
     inkscape:current-layer="svg3016" />
  <g
     id="svg_1"
     stroke="null"
     transform="matrix(-0.99998766,0.00496707,-0.00496707,-0.99998766,50.436565,49.920341)">
    <path
       style="fill:#010002"
       inkscape:connector-curvature="0"
       d="m 7.703793,33.677947 8.794085,8.794085 20.004091,-20.007361 -8.79572,-8.79245 -20.002457,20.005726 z m 9.0736,6.745946 -7.023826,-7.02873 17.820281,-17.815378 7.020557,7.027095 -17.817012,17.817012 z M 28.163935,8.41702 41.757171,22.024967 40.148736,23.631767 26.553865,10.02382 28.163934,8.41702 z m 21.748197,3.841282 -1.325651,1.325651 -2.386499,-2.388133 -6.644601,6.644601 -7.215073,-7.221611 6.641332,-6.639698 -2.386499,-2.384864 1.325651,-1.327286 11.99134,11.99134 z M 9.467514,37.780763 12.396696,40.708311 1.574087,49.778641 0.400453,48.601737 9.467514,37.780763 z m 4.620981,-8.681298 4.398677,4.397042 -1.644396,1.64603 -4.398677,-4.395408 1.644396,-1.647665 z m 4.057048,-4.055414 4.400312,4.397042 -1.64603,1.647665 -4.400312,-4.397042 1.64603,-1.647665 z m 3.926281,-3.924646 4.398677,4.393773 -1.647665,1.6493 -4.398677,-4.392139 1.647665,-1.650934 z m 3.476769,-3.476769 4.395408,4.397042 -1.644396,1.64603 -4.397042,-4.397042 1.64603,-1.64603 z"
       id="svg_2"
       stroke="null" />
  </g>
  <g
     id="svg_3" />
  <g
     id="svg_4" />
  <g
     id="svg_5" />
  <g
     id="svg_6" />
  <g
     id="svg_7" />
  <g
     id="svg_8" />
  <g
     id="svg_9" />
  <g
     id="svg_10" />
  <g
     id="svg_11" />
  <g
     id="svg_12" />
  <g
     id="svg_13" />
  <g
     id="svg_14" />
  <g
     id="svg_15" />
  <g
     id="svg_16" />
  <g
     id="svg_17" />
</svg>
