<?xml version="1.0"?>
<svg width="517.079" height="517.079" xmlns="http://www.w3.org/2000/svg" xmlns:svg="http://www.w3.org/2000/svg">
 <g>
  <title>Layer 1</title>
  <path id="svg_25" d="m427.010287,82.546004l22.28571,-38.999993l22.28571,38.999993l-44.57142,0z" stroke-linecap="null" stroke-linejoin="null" stroke-dasharray="null" stroke-width="null" fill="#bfdfff"/>
  <path id="svg_24" d="m301.010287,81.796004l22.28571,-38.999993l22.28571,38.999993l-44.57142,0z" stroke-linecap="null" stroke-linejoin="null" stroke-dasharray="null" stroke-width="null" fill="#bfdfff"/>
  <path id="svg_23" d="m177.260287,84.796004l22.28571,-38.999993l22.28571,38.999993l-44.57142,0z" stroke-linecap="null" stroke-linejoin="null" stroke-dasharray="null" stroke-width="null" fill="#bfdfff"/>
  <path id="svg_21" d="m48.153903,84.209517l22.28571,-38.999993l22.28571,38.999993l-44.571421,0z" stroke-linecap="null" stroke-linejoin="null" stroke-dasharray="null" stroke-width="null" fill="#bfdfff"/>
  <g id="svg_3"/>
  <g id="svg_4"/>
  <g id="svg_5"/>
  <g id="svg_6"/>
  <g id="svg_7"/>
  <g id="svg_8"/>
  <g id="svg_9"/>
  <g id="svg_10"/>
  <g id="svg_11"/>
  <g id="svg_12"/>
  <g id="svg_13"/>
  <g id="svg_14"/>
  <g id="svg_15"/>
  <g id="svg_16"/>
  <g id="svg_17"/>
  <rect id="svg_20" height="444.749982" width="525.749984" y="76.921007" x="-1.078995" stroke-linecap="null" stroke-linejoin="null" stroke-dasharray="null" stroke-width="null" fill="#bfdfff"/>
  <path stroke-width="20" stroke="#007fff" fill="#007fff" id="svg_2" d="m-8.780765,80.165128c0,-0.169285 -0.027338,-0.311231 -0.016823,-0.482619c0.25971,-3.711643 3.506609,-6.481181 7.211943,-6.262477c0.00736,0 0.051521,0 0.064139,0c0,0 0.031544,0 0.044161,0c1.907343,0.12302 38.588469,2.061907 55.969052,-14.168382c5.937577,-5.543281 8.831187,-12.531264 8.831187,-21.351936c0,-3.736878 3.021887,-6.757714 6.751405,-6.757714c0,0 0,0 0.011566,0c3.728466,0 6.757714,3.026093 6.757714,6.757714c0,8.820672 2.878889,15.808655 8.826981,21.351936c13.750954,12.844598 39.60628,14.31138 50.735951,14.291403c12.469228,-0.31018 34.002014,-2.608665 46.189451,-13.91393c6.041672,-5.581133 8.969979,-12.710011 8.969979,-21.729409c0,-3.736878 3.033453,-6.757714 6.765074,-6.757714c3.728466,0 6.756662,3.026093 6.756662,6.757714c0,8.820672 2.886249,15.808655 8.825929,21.351936c12.801488,11.959271 36.087053,14.039053 48.232432,14.274579c12.565962,-0.38273 33.508881,-2.815802 45.478667,-13.897106c6.03326,-5.581133 8.968928,-12.710011 8.968928,-21.729409c0,-3.736878 3.030299,-6.757714 6.760868,-6.757714c3.732672,0 6.760868,3.026093 6.760868,6.757714c0,8.820672 2.880992,15.808655 8.818569,21.351936c12.887708,12.036027 36.386718,14.070597 48.459547,14.274579c12.553344,-0.38273 33.569865,-2.786361 45.564886,-13.897106c6.041672,-5.581133 8.978391,-12.710011 8.978391,-21.729409c0,-3.736878 3.030299,-6.757714 6.754559,-6.757714c3.751598,0 6.767177,3.026093 6.767177,6.757714c0,8.820672 2.886249,15.808655 8.823827,21.351936c17.76121,16.573064 55.685159,14.196771 56.068941,14.168382c3.715849,-0.218703 6.955388,2.550835 7.210892,6.262477c0.261813,3.736878 -2.543474,6.953285 -6.268786,7.218252c-1.786425,0.12302 -44.115978,2.845242 -66.212346,-17.744387c-2.430968,-2.270096 -4.550706,-4.743122 -6.320308,-7.384382c-5.042787,7.730311 -12.890862,13.86346 -23.379145,18.162867c-9.016243,3.703231 -18.841057,5.526458 -27.246403,6.406527c-0.686601,0.293356 -1.412107,0.518368 -2.182825,0.558324c-0.458435,0.034698 -3.693768,0.235526 -8.572528,0.177696c-1.447856,0.028389 -2.773743,0.05783 -3.947169,0.05783c-3.864104,0 -7.319192,-0.011566 -9.780652,-0.932642c-14.164176,-1.592957 -31.989526,-5.926011 -43.909893,-17.047271c-2.453049,-2.270096 -4.559117,-4.743122 -6.323462,-7.384382c-5.048045,7.730311 -12.896119,13.86346 -23.378093,18.162867c-8.872194,3.625423 -18.509848,5.458113 -26.810049,6.35816c-0.716042,0.330157 -1.48676,0.566735 -2.307948,0.607742c-0.821188,0.041007 -3.792605,0.253401 -8.79754,0.177696c-1.47204,0.028389 -2.838934,0.05783 -4.048109,0.05783c-3.928243,0 -7.40436,-0.028389 -9.866872,-0.978906c-14.105295,-1.642376 -31.697221,-5.992253 -43.509288,-17.001007c-2.449895,-2.270096 -4.555963,-4.743122 -6.316102,-7.384382c-5.050148,7.730311 -12.897171,13.86346 -23.383351,18.162867c-10.489334,4.306768 -22.064824,6.075318 -31.245094,6.777691c-0.359598,0.097785 -0.712888,0.171387 -1.100875,0.180851c-0.181902,0.016823 -0.826445,0.066242 -1.815866,0.094631c-1.682331,0.130381 -3.547616,0.140895 -5.520149,0.140895c-0.358547,0 -0.753895,-0.010515 -1.141882,-0.010515c-0.387988,0 -0.775975,0.010515 -1.136625,0.010515c-2.759023,0 -5.28988,-0.010515 -7.425389,-0.341724c-9.321166,-0.647697 -21.363502,-2.39627 -32.251338,-6.857602c-10.433607,-4.295202 -18.266961,-10.390497 -23.30344,-18.069287c-5.058559,7.684047 -12.886656,13.780395 -23.326572,18.069287c-15.272412,6.262477 -32.841206,7.200377 -41.953131,7.200377c-1.973585,0 -3.838869,-0.010515 -5.515943,-0.140895c-0.989421,-0.028389 -1.63081,-0.077808 -1.826381,-0.094631c-1.131368,-0.074653 -2.162847,-0.442663 -3.075512,-1.024119c-1.650787,-0.797004 -2.727479,-2.162847 -3.046071,-4.383524c-0.064139,-0.331209 -0.107249,-0.652955 -0.12302,-0.99573l0.025235,-0.3249z"/>
  <circle stroke="#000000" id="svg_26" r="57.924446" cy="189.046011" cx="298.546022" stroke-linecap="null" stroke-linejoin="null" stroke-dasharray="null" stroke-width="2" fill="#ffffff"/>
  <path stroke-width="2" transform="rotate(-141.9541778564453 322.97015380859375,152.52391052246094) " id="svg_34" d="m316.220143,159.273913l2.531251,-13.500007l8.437505,0l2.53125,13.500007l-13.500007,0z" stroke-linecap="null" stroke-linejoin="null" stroke-dasharray="null" stroke="#000000" fill="#ffffff"/>
  <circle id="svg_35" stroke="#000000" r="57.924446" cy="336.796011" cx="216.045993" stroke-linecap="null" stroke-linejoin="null" stroke-dasharray="null" stroke-width="2" fill="#ffffff"/>
  <path id="svg_36" stroke-width="2" transform="rotate(-141.9541778564453 240.47012329101562,300.27392578124994) " d="m233.720114,307.023913l2.531251,-13.500007l8.437506,0l2.53125,13.500007l-13.500007,0z" stroke-linecap="null" stroke-linejoin="null" stroke-dasharray="null" stroke="#000000" fill="#ffffff"/>
  <circle id="svg_37" stroke="#000000" r="57.924446" cy="488.296011" cx="281.295993" stroke-linecap="null" stroke-linejoin="null" stroke-dasharray="null" stroke-width="2" fill="#ffffff"/>
  <path id="svg_38" stroke-width="2" transform="rotate(-141.9541778564453 305.7201232910156,451.77392578125) " d="m298.970114,458.523913l2.531251,-13.500007l8.437506,0l2.53125,13.500007l-13.500007,0z" stroke-linecap="null" stroke-linejoin="null" stroke-dasharray="null" stroke="#000000" fill="#ffffff"/>
 </g>
</svg>